<?xml version="1.0" standalone="no"?>
<!DOCTYPE svg PUBLIC "-//W3C//DTD SVG 20010904//EN"
 "http://www.w3.org/TR/2001/REC-SVG-20010904/DTD/svg10.dtd">
<svg version="1.0" xmlns="http://www.w3.org/2000/svg"
 width="500.000000pt" height="500.000000pt" viewBox="0 0 500.000000 500.000000"
 preserveAspectRatio="xMidYMid meet">

<g transform="translate(0.000000,500.000000) scale(0.100000,-0.100000)"
fill="#000000" stroke="none">
<path d="M4007 4236 c-146 -52 -308 -61 -757 -46 -394 14 -519 9 -677 -26
-226 -50 -417 -136 -652 -292 -490 -326 -837 -900 -938 -1552 -25 -161 -24
-414 1 -535 36 -172 100 -326 201 -480 211 -326 633 -510 1127 -492 405 14
730 140 985 380 205 194 313 409 343 683 11 96 10 136 -5 284 -22 220 -18 306
19 380 34 68 61 97 151 165 84 62 166 172 168 226 2 31 0 34 -31 37 -18 2 -67
-4 -109 -14 -94 -21 -233 -15 -368 15 -139 32 -358 29 -485 -4 -52 -14 -116
-39 -141 -56 -58 -37 -126 -109 -163 -171 -31 -54 -58 -172 -54 -237 3 -42 5
-46 32 -49 17 -2 56 10 101 32 95 46 132 54 349 71 99 8 205 17 234 20 48 5
52 3 52 -16 0 -11 -11 -39 -24 -62 -31 -54 -48 -115 -86 -311 -58 -297 -102
-401 -219 -516 -153 -152 -330 -212 -618 -211 -203 1 -364 45 -476 130 -156
117 -205 256 -194 541 12 284 113 622 262 875 157 266 408 506 669 637 93 47
275 109 391 133 44 9 157 32 250 51 94 19 211 46 260 59 172 45 391 152 519
254 66 53 82 79 62 106 -22 30 -75 28 -179 -9z"/>
</g>
</svg>
