<?xml version="1.0" standalone="no"?>
<!DOCTYPE svg PUBLIC "-//W3C//DTD SVG 20010904//EN"
 "http://www.w3.org/TR/2001/REC-SVG-20010904/DTD/svg10.dtd">
<svg version="1.0" xmlns="http://www.w3.org/2000/svg"
 width="414.000000pt" height="500.000000pt" viewBox="0 0 414.000000 500.000000"
 preserveAspectRatio="xMidYMid meet">

<g transform="translate(0.000000,500.000000) scale(0.100000,-0.100000)"
fill="#000000" stroke="none">
<path d="M52 2543 l3 -568 180 1 c204 0 241 7 357 66 181 93 308 300 308 503
0 119 -53 278 -108 328 -20 18 -21 18 -31 0 -13 -25 -67 -48 -161 -68 -100
-21 -150 -47 -200 -101 -56 -61 -91 -141 -98 -221 -8 -103 20 -133 124 -133
97 0 135 29 160 125 22 82 22 83 -38 74 -84 -12 -88 -11 -88 15 0 62 82 105
168 88 26 -6 62 -8 80 -5 28 5 32 2 32 -16 0 -11 -14 -33 -30 -48 -28 -25 -30
-31 -30 -97 0 -106 -14 -143 -75 -203 -65 -63 -134 -87 -229 -81 -224 14 -316
222 -204 458 40 82 123 167 203 205 56 28 68 29 198 31 143 2 187 8 187 24 0
15 -111 100 -172 131 -99 50 -154 59 -355 59 l-183 0 2 -567z"/>
<path d="M2888 2781 c-107 -42 -148 -99 -155 -216 -4 -62 -1 -76 24 -125 34
-67 87 -106 166 -122 192 -40 349 113 307 299 -30 139 -199 220 -342 164z
m157 -115 c84 -35 87 -178 5 -221 -62 -32 -146 -11 -175 45 -8 16 -15 50 -15
76 0 39 5 51 34 80 28 28 42 34 75 34 23 0 57 -6 76 -14z"/>
<path d="M1030 2555 l0 -235 160 0 160 0 0 61 0 60 -88 -2 c-48 -2 -93 1 -100
5 -9 5 -12 55 -12 177 l0 169 -60 0 -60 0 0 -235z"/>
<path d="M1437 2783 c-4 -3 -7 -109 -7 -235 l0 -228 65 0 65 0 0 235 0 235
-58 0 c-32 0 -62 -3 -65 -7z"/>
<path d="M1657 2783 c-4 -3 -7 -28 -7 -55 l0 -48 90 0 c74 0 90 -3 90 -15 0
-14 -27 -51 -155 -214 -28 -35 -35 -53 -35 -87 l0 -44 190 0 190 0 0 55 0 54
-97 3 c-53 2 -98 8 -100 13 -1 6 40 65 92 132 88 113 95 125 95 167 l0 46
-173 0 c-96 0 -177 -3 -180 -7z"/>
<path d="M2106 2782 c-3 -5 -6 -110 -6 -233 l-2 -224 66 -3 66 -3 0 116 c0
132 6 137 63 49 29 -44 36 -49 74 -52 40 -3 42 -2 83 57 60 85 70 76 63 -60
l-6 -109 67 0 66 0 0 235 0 235 -50 0 c-44 0 -52 -4 -74 -32 -64 -83 -96 -129
-111 -157 -8 -17 -22 -31 -30 -31 -7 0 -48 50 -90 110 l-76 110 -49 0 c-27 0
-51 -4 -54 -8z"/>
</g>
</svg>
