<?xml version="1.0" standalone="no"?>
<!DOCTYPE svg PUBLIC "-//W3C//DTD SVG 20010904//EN"
 "http://www.w3.org/TR/2001/REC-SVG-20010904/DTD/svg10.dtd">
<svg version="1.0" xmlns="http://www.w3.org/2000/svg"
 width="100.000000pt" height="100.000000pt" viewBox="0 0 100.000000 100.000000"
 preserveAspectRatio="xMidYMid meet">

<g transform="translate(0.000000,100.000000) scale(0.100000,-0.100000)"
fill="#000000" stroke="none">
<path d="M450 899 c-168 -50 -185 -278 -25 -350 133 -61 284 56 260 202 -18
104 -134 177 -235 148z"/>
<path d="M385 456 c-148 -34 -248 -98 -255 -162 -9 -85 30 -134 134 -167 62
-19 93 -22 236 -22 147 0 173 3 238 24 104 34 141 81 132 165 -12 110 -297
205 -485 162z"/>
</g>
</svg>
